<svg width="27" height="26" viewBox="0 0 27 26" fill="none" xmlns="http://www.w3.org/2000/svg">
<g id="like 1" clip-path="url(#clip0_8_916)">
<g id="Group">
<g id="Group_2">
<path id="Vector" d="M6.239 12.262H3.18609C2.76461 12.262 2.42285 12.6037 2.42285 13.0252V25.2366C2.42285 25.6581 2.76456 25.9999 3.18609 25.9999H6.23895C6.66044 25.9999 7.00219 25.6582 7.00219 25.2366V13.0252C7.00219 12.6037 6.66054 12.262 6.239 12.262Z" fill="white"/>
</g>
</g>
<g id="Group_3">
<g id="Group_4">
<path id="Vector_2" d="M25.3042 14.2852C25.1695 13.1012 24.0636 12.2621 22.872 12.2621H16.9217C17.4274 11.3566 17.6988 8.79556 17.6868 7.74937C17.6668 6.01763 16.2327 4.62988 14.5009 4.62988H13.8711C13.4493 4.62988 13.1079 4.97123 13.1079 5.39312C13.1079 7.15802 12.4207 10.3436 11.1246 11.6398C10.2522 12.5121 9.50646 12.8282 8.52856 13.317V24.769C10.0257 25.2681 11.9267 26.0001 14.8241 26.0001H19.8167C21.4618 26.0001 22.743 24.4765 22.1055 22.8667C23.0767 22.6021 23.7929 21.7114 23.7929 20.6575C23.7929 20.3601 23.7355 20.0754 23.6319 19.8138C25.2686 19.3679 25.871 17.3471 24.7351 16.0782C25.1524 15.612 25.3825 14.9743 25.3042 14.2852Z" fill="white"/>
</g>
</g>
</g>
<defs>
<clipPath id="clip0_8_916">
<rect width="26" height="26" fill="white" transform="translate(0.871094)"/>
</clipPath>
</defs>
</svg>
