<svg width="32" height="32" viewBox="0 0 32 32" fill="none" xmlns="http://www.w3.org/2000/svg">
<g id="comment 2" clip-path="url(#clip0_8_2290)">
<g id="Group">
<path id="Vector" d="M28.5877 26.8595C34.0402 20.5705 32.1431 10.7936 24.7275 6.97969C22.5859 2.83255 18.2573 -0.00927734 13.2772 -0.00927734C6.17621 -0.00927734 0.399184 5.76811 0.399184 12.8695C0.399184 15.9958 1.50584 18.9526 3.53395 21.2919L0.672238 24.1161C0.0922352 24.6886 0.494015 25.6831 1.3125 25.687L8.22335 25.72C10.6048 29.1853 14.539 31.3158 18.8445 31.3158C18.8533 31.3158 30.8022 31.2546 30.8092 31.2546C31.625 31.2507 32.0313 30.2579 31.4494 29.6836L28.5877 26.8595ZM5.46197 20.6712C3.38075 18.5861 2.23451 15.8154 2.23451 12.8695C2.23451 6.78018 7.18827 1.82617 13.2772 1.82617C19.3661 1.82617 24.3199 6.78018 24.3199 12.8695C24.3199 18.7046 19.7023 23.9598 12.9191 23.9068L3.54252 23.8622L5.45708 21.9728C5.81915 21.6153 5.82129 21.0312 5.46197 20.6712ZM18.8445 29.4803C15.6243 29.4803 12.6311 28.1044 10.5504 25.731C14.0441 25.754 13.1167 25.7482 13.2772 25.7482C21.5613 25.7482 27.747 17.9776 25.8004 9.86441C30.8764 14.0109 31.2922 21.5978 26.6597 26.2387C26.3003 26.5988 26.3025 27.1829 26.6646 27.5403L28.5792 29.4297C28.5719 29.4297 18.8516 29.4803 18.8445 29.4803Z" fill="white"/>
<path id="Vector_2" d="M7.80145 10.147H18.8136C19.3204 10.147 19.7312 9.73608 19.7312 9.22925C19.7312 8.72242 19.3204 8.31152 18.8136 8.31152H7.80145C7.29462 8.31152 6.88379 8.72242 6.88379 9.22925C6.88379 9.73608 7.29469 10.147 7.80145 10.147Z" fill="white"/>
<path id="Vector_3" d="M7.80145 13.8179H18.8136C19.3204 13.8179 19.7312 13.407 19.7312 12.9001C19.7312 12.3933 19.3204 11.9824 18.8136 11.9824H7.80145C7.29462 11.9824 6.88379 12.3933 6.88379 12.9001C6.88379 13.407 7.29469 13.8179 7.80145 13.8179Z" fill="white"/>
<path id="Vector_4" d="M7.80145 17.4888H18.8136C19.3204 17.4888 19.7312 17.0779 19.7312 16.571C19.7312 16.0642 19.3204 15.6533 18.8136 15.6533H7.80145C7.29462 15.6533 6.88379 16.0642 6.88379 16.571C6.88379 17.0779 7.29469 17.4888 7.80145 17.4888Z" fill="white"/>
</g>
</g>
<defs>
<clipPath id="clip0_8_2290">
<rect width="31.325" height="31.325" fill="white" transform="translate(0.398438 -0.00927734)"/>
</clipPath>
</defs>
</svg>
