<svg width="32" height="32" viewBox="0 0 32 32" fill="none" xmlns="http://www.w3.org/2000/svg">
<g id="famous (1) 1" clip-path="url(#clip0_8_2380)">
<g id="XMLID 1469">
<g id="XMLID 180">
<path id="XMLID 181" d="M23.4644 4.82476H23.8926V5.25303C23.8926 5.59094 24.1666 5.86485 24.5044 5.86485C24.8423 5.86485 25.1163 5.59094 25.1163 5.25303V4.82476H25.5445C25.8824 4.82476 26.1564 4.55085 26.1564 4.21294C26.1564 3.87503 25.8824 3.60112 25.5445 3.60112H25.1163V3.17285C25.1163 2.83495 24.8423 2.56104 24.5044 2.56104C24.1666 2.56104 23.8926 2.83495 23.8926 3.17285V3.60112H23.4644C23.1265 3.60112 22.8525 3.87503 22.8525 4.21294C22.8525 4.55085 23.1265 4.82476 23.4644 4.82476Z" fill="white"/>
<path id="XMLID 182" d="M4.7125 19.9351H4.28423V19.5068C4.28423 19.1689 4.01026 18.895 3.67241 18.895C3.33457 18.895 3.0606 19.1689 3.0606 19.5068V19.9351H2.63232C2.29448 19.9351 2.02051 20.209 2.02051 20.5469C2.02051 20.8848 2.29448 21.1587 2.63232 21.1587H3.0606V21.587C3.0606 21.9249 3.33457 22.1988 3.67241 22.1988C4.01026 22.1988 4.28423 21.9249 4.28423 21.587V21.1587H4.7125C5.05035 21.1587 5.32432 20.8848 5.32432 20.5469C5.32432 20.209 5.05035 19.9351 4.7125 19.9351Z" fill="white"/>
<path id="XMLID 183" d="M30.4889 20.9751H30.0606V20.5469C30.0606 20.209 29.7866 19.9351 29.4488 19.9351C29.1109 19.9351 28.837 20.209 28.837 20.5469V20.9751H28.4087C28.0708 20.9751 27.7969 21.2491 27.7969 21.587C27.7969 21.9249 28.0708 22.1988 28.4087 22.1988H28.837V22.6271C28.837 22.965 29.1109 23.2389 29.4488 23.2389C29.7866 23.2389 30.0606 22.965 30.0606 22.6271V22.1988H30.4889C30.8267 22.1988 31.1007 21.9249 31.1007 21.587C31.1007 21.2491 30.8268 20.9751 30.4889 20.9751Z" fill="white"/>
<path id="XMLID 186" d="M23.8748 18.5034L30.0021 14.0721C30.9484 13.3877 31.3275 12.2275 30.9678 11.1163C30.6081 10.0052 29.621 9.28722 28.4531 9.28722H20.8901L18.5757 2.12755C18.2163 1.01576 17.2291 0.297363 16.0607 0.297363C14.8922 0.297363 13.905 1.01576 13.5456 2.12755L11.2313 9.28716H3.66818C2.50029 9.28716 1.51318 10.0051 1.15349 11.1162C0.793745 12.2274 1.17283 13.3876 2.11919 14.0721L8.24647 18.5034L5.90144 25.6677C5.46687 26.9953 6.11215 28.161 7.02321 28.7359V31.0106C7.02321 31.3485 7.29718 31.6224 7.63502 31.6224H13.3075C13.6453 31.6224 13.9193 31.3485 13.9193 31.0106C13.9193 30.6727 13.6453 30.3988 13.3075 30.3988H8.24684V28.4919C8.24684 26.6448 9.74965 25.142 11.5967 25.142H13.9161L15.5038 28.6293C15.6032 28.8474 15.8209 28.9875 16.0607 28.9875C16.3004 28.9875 16.5181 28.8474 16.6175 28.6293L18.2053 25.142H20.5247C22.3717 25.142 23.8745 26.6448 23.8745 28.4919V30.3988H18.8138C18.476 30.3988 18.202 30.6727 18.202 31.0106C18.202 31.3485 18.476 31.6224 18.8138 31.6224H24.4864C24.8242 31.6224 25.0982 31.3485 25.0982 31.0106V28.7359C26.0092 28.161 26.6545 26.9953 26.2199 25.6677L23.8748 18.5034ZM13.1707 18.2702H17.4088C17.9648 18.2702 18.489 18.1329 18.9506 17.8917V19.2644C18.9506 21.1327 17.7353 22.4888 16.0607 22.4888C14.4672 22.4888 13.1708 21.1924 13.1708 19.5988V18.2702H13.1707ZM19.526 14.9294C19.526 16.0969 18.5762 17.0466 17.4088 17.0466H13.1707V16.1347C13.1707 14.9673 14.1205 14.0175 15.2879 14.0175H19.526V14.9294ZM16.0607 26.8993L14.9216 24.3976V23.5508C15.2836 23.6553 15.6655 23.7125 16.0607 23.7125C16.4591 23.7125 16.8404 23.6561 17.1997 23.552V24.3976L16.0607 26.8993ZM24.9215 27.2363C24.3743 25.3233 22.611 23.9184 20.5247 23.9184H18.4234V22.9505C19.4961 22.1644 20.1742 20.8342 20.1742 19.2644V16.8016C20.5372 16.2672 20.7496 15.6226 20.7496 14.9293V13.4057C20.7496 13.0678 20.4756 12.7938 20.1378 12.7938H15.2878C13.4457 12.7938 11.947 14.2926 11.947 16.1347V19.5988C11.947 20.9882 12.6401 22.2179 13.6979 22.963V23.9183H11.5967C9.51024 23.9183 7.74692 25.3232 7.19978 27.2363C6.99555 26.915 6.91565 26.5023 7.06432 26.0483L9.54836 18.4596C9.63114 18.2068 9.54102 17.9294 9.32541 17.7735L2.83636 13.0806C2.21946 12.6345 2.16397 11.9681 2.31766 11.4932C2.47135 11.0183 2.9069 10.5109 3.66818 10.5109H11.6765C11.9419 10.5109 12.177 10.3397 12.2587 10.0872L14.71 2.504C14.9442 1.77925 15.5613 1.521 16.0607 1.521C16.56 1.521 17.1771 1.77925 17.4114 2.50388L19.8626 10.0872C19.9443 10.3397 20.1794 10.5108 20.4448 10.5108H28.4531C29.2144 10.5108 29.65 11.0182 29.8037 11.4931C29.9574 11.968 29.9019 12.6344 29.285 13.0805L22.7958 17.7736C22.5803 17.9294 22.4902 18.2068 22.5729 18.4596L25.0569 26.0483C25.2056 26.5024 25.1257 26.915 24.9215 27.2363Z" fill="white"/>
<path id="XMLID 192" d="M16.061 30.3989C15.9001 30.3989 15.7423 30.4644 15.6285 30.5782C15.5147 30.692 15.4492 30.8498 15.4492 31.0107C15.4492 31.1717 15.5146 31.3295 15.6285 31.4433C15.7423 31.5571 15.9001 31.6226 16.061 31.6226C16.2219 31.6226 16.3798 31.5571 16.4935 31.4433C16.6073 31.3295 16.6729 31.1717 16.6729 31.0107C16.6729 30.8498 16.6074 30.692 16.4935 30.5782C16.3798 30.4644 16.2219 30.3989 16.061 30.3989Z" fill="white"/>
</g>
</g>
</g>
<defs>
<clipPath id="clip0_8_2380">
<rect width="31.325" height="31.325" fill="white" transform="translate(0.398438 0.297363)"/>
</clipPath>
</defs>
</svg>
