<svg width="32" height="32" viewBox="0 0 32 32" fill="none" xmlns="http://www.w3.org/2000/svg">
<g id="film 1" clip-path="url(#clip0_8_2297)">
<path id="Vector" d="M28.9457 1.36768C28.6077 1.36768 28.3338 1.64156 28.3338 1.97949V2.82457H26.877V1.97949C26.877 1.64156 26.6028 1.36768 26.2651 1.36768C25.9272 1.36768 25.6533 1.64156 25.6533 1.97949V3.43638C25.6533 3.77432 25.9272 4.0482 26.2651 4.0482H28.9457C29.2834 4.0482 29.5575 3.77432 29.5575 3.43638V1.97949C29.5575 1.64156 29.2834 1.36768 28.9457 1.36768Z" fill="white"/>
<path id="Vector_2" d="M28.9457 13.8545H26.2651C25.9272 13.8545 25.6533 14.1284 25.6533 14.4663V17.1468C25.6533 17.4848 25.9272 17.7586 26.2651 17.7586H28.9457C29.2834 17.7586 29.5575 17.4848 29.5575 17.1468V14.4663C29.5575 14.1284 29.2834 13.8545 28.9457 13.8545ZM28.3338 16.535H26.877V15.0781H28.3338V16.535Z" fill="white"/>
<path id="Vector_3" d="M28.9457 6.99902H26.2651C25.9272 6.99902 25.6533 7.27291 25.6533 7.61084V10.2914C25.6533 10.6293 25.9272 10.9032 26.2651 10.9032H28.9457C29.2834 10.9032 29.5575 10.6293 29.5575 10.2914V7.61084C29.5575 7.27291 29.2834 6.99902 28.9457 6.99902ZM28.3338 9.67955H26.877V8.22266H28.3338V9.67955Z" fill="white"/>
<path id="Vector_4" d="M28.9457 20.71H26.2651C25.9272 20.71 25.6533 20.9838 25.6533 21.3218V24.0023C25.6533 24.3402 25.9272 24.6141 26.2651 24.6141H28.9457C29.2834 24.6141 29.5575 24.3402 29.5575 24.0023V21.3218C29.5575 20.9838 29.2834 20.71 28.9457 20.71ZM28.3338 23.3905H26.877V21.9336H28.3338V23.3905Z" fill="white"/>
<path id="Vector_5" d="M28.9457 27.5649H26.2651C25.9272 27.5649 25.6533 27.8388 25.6533 28.1768V29.6336C25.6533 29.9716 25.9272 30.2455 26.2651 30.2455C26.6028 30.2455 26.877 29.9716 26.877 29.6336V28.7886H28.3338V29.6336C28.3338 29.9716 28.6077 30.2455 28.9457 30.2455C29.2834 30.2455 29.5575 29.9716 29.5575 29.6336V28.1768C29.5575 27.8388 29.2834 27.5649 28.9457 27.5649Z" fill="white"/>
<path id="Vector_6" d="M5.81602 1.36768C5.47808 1.36768 5.2042 1.64156 5.2042 1.97949V2.82457H3.74707V1.97949C3.74707 1.64156 3.47319 1.36768 3.13525 1.36768C2.79756 1.36768 2.52344 1.64156 2.52344 1.97949V3.43638C2.52344 3.77432 2.79756 4.0482 3.13525 4.0482H5.81602C6.15371 4.0482 6.42783 3.77432 6.42783 3.43638V1.97949C6.42783 1.64156 6.15371 1.36768 5.81602 1.36768Z" fill="white"/>
<path id="Vector_7" d="M5.81602 13.8545H3.13525C2.79756 13.8545 2.52344 14.1284 2.52344 14.4663V17.1468C2.52344 17.4848 2.79756 17.7586 3.13525 17.7586H5.81602C6.15371 17.7586 6.42783 17.4848 6.42783 17.1468V14.4663C6.42783 14.1284 6.15371 13.8545 5.81602 13.8545ZM5.2042 16.535H3.74707V15.0781H5.2042V16.535Z" fill="white"/>
<path id="Vector_8" d="M5.81602 6.99902H3.13525C2.79756 6.99902 2.52344 7.27291 2.52344 7.61084V10.2914C2.52344 10.6293 2.79756 10.9032 3.13525 10.9032H5.81602C6.15371 10.9032 6.42783 10.6293 6.42783 10.2914V7.61084C6.42783 7.27291 6.15371 6.99902 5.81602 6.99902ZM5.2042 9.67955H3.74707V8.22266H5.2042V9.67955Z" fill="white"/>
<path id="Vector_9" d="M5.81602 20.71H3.13525C2.79756 20.71 2.52344 20.9838 2.52344 21.3218V24.0023C2.52344 24.3402 2.79756 24.6141 3.13525 24.6141H5.81602C6.15371 24.6141 6.42783 24.3402 6.42783 24.0023V21.3218C6.42783 20.9838 6.15371 20.71 5.81602 20.71ZM5.2042 23.3905H3.74707V21.9336H5.2042V23.3905Z" fill="white"/>
<path id="Vector_10" d="M5.81602 27.5649H3.13525C2.79756 27.5649 2.52344 27.8388 2.52344 28.1768V29.6336C2.52344 29.9716 2.79756 30.2455 3.13525 30.2455C3.47319 30.2455 3.74707 29.9716 3.74707 29.6336V28.7886H5.2042V29.6336C5.2042 29.9716 5.47808 30.2455 5.81602 30.2455C6.15371 30.2455 6.42783 29.9716 6.42783 29.6336V28.1768C6.42783 27.8388 6.15371 27.5649 5.81602 27.5649Z" fill="white"/>
<path id="Vector_11" d="M9.03558 25.284H22.767C23.7247 25.284 24.5036 24.5051 24.5036 23.5474V13.0087C24.5036 12.6707 24.2297 12.3968 23.8917 12.3968C23.554 12.3968 23.2799 12.6707 23.2799 13.0087V23.5474C23.2799 23.8302 23.05 24.0603 22.767 24.0603H9.03558C8.75261 24.0603 8.52246 23.8302 8.52246 23.5474V8.06561C8.52246 7.78288 8.75261 7.55274 9.03558 7.55274H22.767C23.05 7.55274 23.2799 7.78288 23.2799 8.06561V8.12608C23.2799 8.46401 23.554 8.73789 23.8917 8.73789C24.2297 8.73789 24.5036 8.46401 24.5036 8.12608V8.06561C24.5036 7.10797 23.7247 6.3291 22.767 6.3291H9.03558C8.07794 6.3291 7.29883 7.10797 7.29883 8.06561V23.5474C7.29883 24.5051 8.07794 25.284 9.03558 25.284Z" fill="white"/>
<path id="Vector_12" d="M24.1066 1.36768C23.7687 1.36768 23.4948 1.64156 23.4948 1.97949V2.31169C23.4948 2.59466 23.2646 2.82457 22.9819 2.82457H9.03558C8.75261 2.82457 8.52246 2.59466 8.52246 2.31169V1.97949C8.52246 1.64156 8.24858 1.36768 7.91065 1.36768C7.57295 1.36768 7.29883 1.64156 7.29883 1.97949V2.31169C7.29883 3.26933 8.07794 4.0482 9.03558 4.0482H22.9819C23.9393 4.0482 24.7184 3.26933 24.7184 2.31169V1.97949C24.7184 1.64156 24.4445 1.36768 24.1066 1.36768Z" fill="white"/>
<path id="Vector_13" d="M22.9819 27.5649H9.03558C8.07794 27.5649 7.29883 28.3438 7.29883 29.3015V29.6336C7.29883 29.9716 7.57295 30.2455 7.91065 30.2455C8.24858 30.2455 8.52246 29.9716 8.52246 29.6336V29.3015C8.52246 29.0185 8.75261 28.7886 9.03558 28.7886H22.9819C23.2646 28.7886 23.4948 29.0185 23.4948 29.3015V29.6336C23.4948 29.9716 23.7687 30.2455 24.1066 30.2455C24.4445 30.2455 24.7184 29.9716 24.7184 29.6336V29.3015C24.7184 28.3438 23.9393 27.5649 22.9819 27.5649Z" fill="white"/>
<path id="Vector_14" d="M1.01025 27.5254C0.672321 27.5254 0.398438 27.7993 0.398438 28.1372V29.6338C0.398438 29.9717 0.672321 30.2456 1.01025 30.2456C1.34819 30.2456 1.62207 29.9717 1.62207 29.6338V28.1372C1.62207 27.7993 1.34819 27.5254 1.01025 27.5254Z" fill="white"/>
<path id="Vector_15" d="M1.01025 1.36768C0.672321 1.36768 0.398438 1.64156 0.398438 1.97949V22.977C0.398438 23.3149 0.672321 23.5888 1.01025 23.5888C1.34819 23.5888 1.62207 23.3149 1.62207 22.977V1.97949C1.62207 1.64156 1.34819 1.36768 1.01025 1.36768Z" fill="white"/>
<path id="Vector_16" d="M31.1118 1.36768C30.7739 1.36768 30.5 1.64156 30.5 1.97949V29.6336C30.5 29.9716 30.7739 30.2454 31.1118 30.2454C31.4498 30.2454 31.7236 29.9716 31.7236 29.6336V1.97949C31.7236 1.64156 31.4498 1.36768 31.1118 1.36768Z" fill="white"/>
<path id="Vector_17" d="M1.57528 25.3871C1.47371 25.1436 1.21966 24.9878 0.956051 25.0117C0.703198 25.0346 0.485716 25.2177 0.419755 25.4629C0.354749 25.7055 0.448912 25.9729 0.654205 26.1185C0.863561 26.2669 1.14677 26.2693 1.35827 26.1242C1.59392 25.9626 1.68306 25.6503 1.57528 25.3871Z" fill="white"/>
<path id="Vector_18" d="M24.4004 10.1208C24.2546 9.90234 23.9767 9.80029 23.7241 9.8727C23.481 9.94225 23.3039 10.159 23.2824 10.4107C23.26 10.6726 23.416 10.9257 23.6584 11.0256C23.8899 11.1214 24.1662 11.0631 24.3378 10.8796C24.5314 10.6726 24.5551 10.3567 24.4004 10.1208Z" fill="white"/>
</g>
<defs>
<clipPath id="clip0_8_2297">
<rect width="31.325" height="31.325" fill="white" transform="translate(0.398438 0.144043)"/>
</clipPath>
</defs>
</svg>
