<svg width="34" height="34" viewBox="0 0 34 34" fill="none" xmlns="http://www.w3.org/2000/svg">
<g id="interface 1">
<g id="Group">
<g id="Group_2">
<path id="Vector" d="M31.0117 4.05078H2.98828C1.3426 4.05078 0 5.39192 0 7.03906V26.9609C0 28.6025 1.33662 29.9492 2.98828 29.9492H31.0117C32.6533 29.9492 34 28.6126 34 26.9609V7.03906C34 5.3975 32.6634 4.05078 31.0117 4.05078ZM30.5991 6.04297L17.0634 19.5788L3.41056 6.04297H30.5991ZM1.99219 26.5484V7.44208L11.5865 16.9541L1.99219 26.5484ZM3.40086 27.957L13.0012 18.3567L16.3652 21.6917C16.7546 22.0778 17.383 22.0766 17.7708 21.6887L21.0508 18.4087L30.5991 27.957H3.40086ZM32.0078 26.5484L22.4595 17L32.0078 7.45158V26.5484Z" fill="white"/>
</g>
</g>
</g>
</svg>
