<svg width="23" height="40" viewBox="0 0 23 40" fill="none" xmlns="http://www.w3.org/2000/svg">
<path d="M20.7969 22.5H14.9375V40H7.125V22.5H0.796875V15.2344H7.125V9.76562C7.125 7.68229 7.51562 5.91146 8.29688 4.45312C9.07812 2.99479 10.1719 1.90104 11.5781 1.17188C13.0365 0.390625 14.7031 0 16.5781 0C17.4115 0 18.2969 0.0520833 19.2344 0.15625C20.1719 0.208333 20.901 0.286458 21.4219 0.390625L22.2031 0.46875V6.64062H19.0781C17.6198 6.64062 16.5521 7.03125 15.875 7.8125C15.25 8.54167 14.9375 9.45312 14.9375 10.5469V15.2344H21.8906L20.7969 22.5Z" fill="white"/>
</svg>
