<svg width="20" height="13" viewBox="0 0 20 13" fill="none" xmlns="http://www.w3.org/2000/svg">
<path d="M18.6992 2.24219C18.7656 2.50781 18.821 2.83984 18.8652 3.23828C18.9316 3.63672 18.9759 4.03516 18.998 4.43359C19.0202 4.8099 19.0312 5.16406 19.0312 5.49609C19.0534 5.82812 19.0645 6.10482 19.0645 6.32617V6.625C19.0645 8.61719 18.9427 10.0892 18.6992 11.041C18.5885 11.4173 18.3893 11.7493 18.1016 12.0371C17.8138 12.3249 17.4707 12.5241 17.0723 12.6348C16.6517 12.7454 15.8548 12.834 14.6816 12.9004C13.5085 12.9447 12.4349 12.9779 11.4609 13H10C6.21484 13 3.85742 12.8783 2.92773 12.6348C2.06445 12.3913 1.52214 11.86 1.30078 11.041C1.1901 10.6204 1.10156 10.0449 1.03516 9.31445C0.990885 8.56185 0.957682 7.93099 0.935547 7.42188V6.625C0.935547 4.65495 1.05729 3.19401 1.30078 2.24219C1.41146 1.84375 1.61068 1.50065 1.89844 1.21289C2.1862 0.92513 2.5293 0.725911 2.92773 0.615234C3.34831 0.504557 4.14518 0.427083 5.31836 0.382812C6.49154 0.316406 7.5651 0.272135 8.53906 0.25H10C13.7852 0.25 16.1426 0.371745 17.0723 0.615234C17.4707 0.725911 17.8138 0.92513 18.1016 1.21289C18.3893 1.50065 18.5885 1.84375 18.6992 2.24219ZM8.14062 9.34766L12.8887 6.625L8.14062 3.93555V9.34766Z" fill="white"/>
</svg>
