<svg width="41" height="34" viewBox="0 0 41 34" fill="none" xmlns="http://www.w3.org/2000/svg">
<path d="M36.3594 8.875C36.4115 9.08333 36.4375 9.42188 36.4375 9.89062C36.4375 12.651 35.9167 15.4115 34.875 18.1719C33.8333 20.8802 32.349 23.3802 30.4219 25.6719C28.5469 27.9115 26.099 29.7344 23.0781 31.1406C20.0573 32.5469 16.724 33.25 13.0781 33.25C8.49479 33.25 4.30208 32.026 0.5 29.5781C1.07292 29.6302 1.72396 29.6562 2.45312 29.6562C6.25521 29.6562 9.66667 28.4844 12.6875 26.1406C10.8646 26.1406 9.25 25.6198 7.84375 24.5781C6.48958 23.4844 5.55208 22.1302 5.03125 20.5156C5.55208 20.5677 6.04688 20.5938 6.51562 20.5938C7.24479 20.5938 7.97396 20.5156 8.70312 20.3594C7.45312 20.099 6.33333 19.5781 5.34375 18.7969C4.35417 18.0156 3.57292 17.0781 3 15.9844C2.42708 14.8385 2.14062 13.6146 2.14062 12.3125V12.1562C3.28646 12.8333 4.51042 13.1979 5.8125 13.25C3.36458 11.5833 2.14062 9.29167 2.14062 6.375C2.14062 4.91667 2.53125 3.53646 3.3125 2.23438C5.34375 4.78646 7.81771 6.81771 10.7344 8.32812C13.7031 9.83854 16.8542 10.6719 20.1875 10.8281C20.0833 10.2031 20.0312 9.57812 20.0312 8.95312C20.0312 6.71354 20.8125 4.78646 22.375 3.17188C23.9896 1.55729 25.9167 0.75 28.1562 0.75C30.5521 0.75 32.5573 1.60938 34.1719 3.32812C36.0469 2.96354 37.7917 2.3125 39.4062 1.375C38.7812 3.30208 37.5833 4.8125 35.8125 5.90625C37.375 5.69792 38.9375 5.25521 40.5 4.57812C39.3542 6.24479 37.974 7.67708 36.3594 8.875Z" fill="white"/>
</svg>
